:FULLY-SPECIFIED
:FORCE-ALL-JOINTS-BE-3DOF
:DEGREES
849
root 3.751 16.5727 28.8423 -8.48525 -5.76939 -0.838506
lfemur -19.97 -0.349183 -8.53207
ltibia 22.0736 -0 0
lfoot -3.03929 -12.6696 0.541019
ltoes 22.9815 -0 0
rfemur -33.3769 10.2157 8.50921
rtibia 39.5696 -0 0
rfoot -2.48673 -0.986274 0.276019
rtoes -11.5179 0 0
lowerback 7.84281 1.62437 0.740441
upperback 2.63531 2.2657 0.167411
thorax -1.10624 1.11794 0.0846342
lowerneck -6.0623 -1.70458 3.48869
upperneck 6.00184 -2.72421 1.93609
head 2.95782 -1.22206 -0.141096
lclavicle 1.25612e-14 -1.25895e-14 8.23599e-31
lhumerus -42.6191 -15.1048 83.9165
lradius 50.7054 -0 0
lwrist 22.0603 0 0
lhand 5.1004 6.6477 -0.455607
lfingers 7.12502 -0 0
lthumb 30.4807 34.2967 -0.42365
rclavicle 1.25612e-14 -1.25895e-14 8.23599e-31
rhumerus -38.3544 13.2857 -72.2549
rradius 54.7902 -0 0
rwrist -1.8598 0 0
rhand -7.74209 -27.3075 0.288824
rfingers 7.12502 -0 0
rthumb 18.1616 -56.5434 0.271956
850
root 3.79642 16.5733 28.9685 -9.03423 -4.62354 -0.665355
lfemur -19.327 -0.0449638 -9.28415
ltibia 22.7486 -0 0
lfoot -3.04261 -13.8517 0.553597
ltoes 23.0492 -0 0
rfemur -35.3703 9.70049 7.96464
rtibia 40.9491 -0 0
rfoot -1.62469 -0.747502 0.234937
rtoes -10.8043 0 0
lowerback 8.22569 1.38004 0.401333
upperback 2.76151 1.91395 0.110664
thorax -1.2126 0.943277 0.219688
lowerneck -6.09106 -1.78942 3.43643
upperneck 6.20268 -2.84583 2.00683
head 3.03323 -1.27602 -0.115487
lclavicle 1.31465e-14 -1.31185e-14 7.95032e-31
lhumerus -42.1306 -15.5693 83.6503
lradius 50.9084 -0 0
lwrist 22.1683 0 0
lhand 5.40034 6.5558 -0.445519
lfingers 7.12502 -0 0
lthumb 30.7673 34.1554 -0.412267
rclavicle 1.31465e-14 -1.31185e-14 7.95032e-31
rhumerus -39.145 12.0937 -70.7777
rradius 54.4396 -0 0
rwrist -1.70509 0 0
rhand -8.03163 -27.5119 0.283935
rfingers 7.12502 -0 0
rthumb 17.8826 -56.7678 0.268149
851
root 3.83839 16.5741 29.0816 -9.57551 -3.37282 -0.516601
lfemur -18.6917 0.287962 -10.0508
ltibia 23.4646 -0 0
lfoot -3.06387 -15.0247 0.560127
ltoes 23.1116 -0 0
rfemur -37.3705 9.12594 7.44945
rtibia 42.3679 -0 0
rfoot -0.761065 -0.535319 0.193799
rtoes -10.09 0 0
lowerback 8.61105 1.1363 0.0525067
upperback 2.88724 1.55939 0.0482759
thorax -1.32154 0.767388 0.354196
lowerneck -6.11977 -1.88082 3.37915
upperneck 6.39923 -2.9762 2.0812
head 3.10764 -1.33412 -0.0878972
lclavicle 1.37368e-14 -1.36456e-14 7.60427e-31
lhumerus -41.6425 -16.0388 83.3852
lradius 51.1348 -0 0
lwrist 22.2696 0 0
lhand 5.68049 6.45108 -0.431665
lfingers 7.12502 -0 0
lthumb 31.0347 34.0024 -0.397511
rclavicle 1.37368e-14 -1.36456e-14 7.60427e-31
rhumerus -39.9595 10.9285 -69.2989
rradius 54.1068 -0 0
rwrist -1.53973 0 0
rhand -8.34259 -27.7133 0.276588
rfingers 7.12502 -0 0
rthumb 17.583 -56.9903 0.261985
852
root 3.87661 16.5748 29.1808 -10.1086 -2.01499 -0.394185
lfemur -18.0659 0.650085 -10.8314
ltibia 24.2224 -0 0
lfoot -3.10358 -16.1865 0.559801
ltoes 23.1684 -0 0
rfemur -39.3746 8.49225 6.96769
rtibia 43.8258 -0 0
rfoot 0.103005 -0.351088 0.153415
rtoes -9.37589 0 0
lowerback 8.99844 0.893513 -0.305899
upperback 3.01234 1.20241 -0.0198725
thorax -1.43297 0.590464 0.487946
lowerneck -6.14835 -1.97891 3.31671
upperneck 6.59099 -3.11549 2.15923
head 3.18089 -1.39647 -0.0582872
lclavicle 1.43317e-14 -1.41699e-14 7.19777e-31
lhumerus -41.1555 -16.5127 83.1219
lradius 51.3854 -0 0
lwrist 22.3636 0 0
lhand 5.9396 6.33318 -0.413889
lfingers 7.12502 -0 0
lthumb 31.2818 33.8376 -0.379287
rclavicle 1.43317e-14 -1.41699e-14 7.19777e-31
rhumerus -40.7959 9.79253 -67.82
rradius 53.793 -0 0
rwrist -1.3635 0 0
rhand -8.67542 -27.9113 0.266649
rfingers 7.12502 -0 0
rthumb 17.2622 -57.2104 0.253316
853
root 3.91082 16.5757 29.2652 -10.6333 -0.547846 -0.300029
lfemur -17.4514 1.04184 -11.6252
ltibia 25.0225 -0 0
lfoot -3.16224 -17.335 0.5518
ltoes 23.2192 -0 0
rfemur -41.3801 7.79988 6.52339
rtibia 45.3223 -0 0
rfoot 0.966402 -0.196155 0.114644
rtoes -8.66306 0 0
lowerback 9.38743 0.652069 -0.673735
upperback 3.13666 0.843412 -0.0938975
thorax -1.54685 0.412698 0.620725
lowerneck -6.17674 -2.08386 3.249
upperneck 6.77749 -3.2639 2.24096
head 3.25282 -1.46314 -0.0266156
lclavicle 1.49303e-14 -1.46908e-14 6.73102e-31
lhumerus -40.6704 -16.9909 82.8608
lradius 51.6607 -0 0
lwrist 22.4499 0 0
lhand 6.17642 6.20172 -0.392048
lfingers 7.12502 -0 0
lthumb 31.5074 33.6606 -0.357517
rclavicle 1.49303e-14 -1.46908e-14 6.73102e-31
rhumerus -41.652 8.6882 -66.343
rradius 53.4995 -0 0
rwrist -1.1762 0 0
rhand -9.03057 -28.1053 0.253985
rfingers 7.12502 -0 0
rthumb 16.9199 -57.4278 0.241997
854
root 3.94075 16.5766 29.3339 -11.1496 1.03081 -0.23605
lfemur -16.8498 1.4636 -12.4316
ltibia 25.8658 -0 0
lfoot -3.24033 -18.4682 0.535299
ltoes 23.2638 -0 0
rfemur -43.3845 7.04953 6.12046
rtibia 46.8571 -0 0
rfoot 1.82801 -0.0718441 0.0783904
rtoes -7.95247 0 0
lowerback 9.77755 0.412336 -1.05085
upperback 3.26005 0.482796 -0.173912
thorax -1.6631 0.234283 0.752317
lowerneck -6.20489 -2.1958 3.17589
upperneck 6.95822 -3.42158 2.32644
head 3.32329 -1.53423 0.00715904
lclavicle 1.55322e-14 -1.52073e-14 6.20454e-31
lhumerus -40.188 -17.473 82.6025
lradius 51.9615 -0 0
lwrist 22.5282 0 0
lhand 6.38969 6.05632 -0.366019
lfingers 7.12502 -0 0
lthumb 31.7101 33.4712 -0.332143
rclavicle 1.55322e-14 -1.52073e-14 6.20454e-31
rhumerus -42.5256 7.61764 -64.8699
rradius 53.2275 -0 0
rwrist -0.977618 0 0
rhand -9.40848 -28.2949 0.238472
rfingers 7.12502 -0 0
rthumb 16.5556 -57.6419 0.227887
855
root 3.96611 16.5777 29.3861 -11.658 2.72314 -0.204188
lfemur -16.2629 1.91568 -13.2501
ltibia 26.7529 -0 0
lfoot -3.33831 -19.5839 0.509472
ltoes 23.3017 -0 0
rfemur -45.3857 6.24214 5.76275
rtibia 48.4298 -0 0
rfoot 2.68669 0.0205417 0.0456031
rtoes -7.24511 0 0
lowerback 10.1683 0.174674 -1.43707
upperback 3.38236 0.12096 -0.260024
thorax -1.78165 0.0554093 0.882507
lowerneck -6.23271 -2.31489 3.09725
upperneck 7.13271 -3.58874 2.41572
head 3.39214 -1.60984 0.0430788
lclavicle 1.61367e-14 -1.57187e-14 5.61913e-31
lhumerus -39.7093 -17.9588 82.3478
lradius 52.2884 -0 0
lwrist 22.5979 0 0
lhand 6.57815 5.8966 -0.335698
lfingers 7.12502 -0 0
lthumb 31.889 33.2691 -0.303125
rclavicle 1.61367e-14 -1.57187e-14 5.61913e-31
rhumerus -43.4142 6.58283 -63.4032
rradius 52.9782 -0 0
rwrist -0.767531 0 0
rhand -9.80961 -28.4797 0.219995
rfingers 7.12502 -0 0
rthumb 16.169 -57.8524 0.210851
856
root 3.98665 16.5788 29.4208 -12.1591 4.53132 -0.206443
lfemur -15.6926 2.39833 -14.0802
ltibia 27.6845 -0 0
lfoot -3.45662 -20.6801 0.473495
ltoes 23.3328 -0 0
rfemur -47.3819 5.37888 5.45398
rtibia 50.04 -0 0
rfoot 3.54135 0.0797197 0.0172698
rtoes -6.54197 0 0
lowerback 10.5594 -0.0605617 -1.83223
upperback 3.50344 -0.241698 -0.35234
thorax -1.90243 -0.123733 1.01108
lowerneck -6.26013 -2.44127 3.01294
upperneck 7.30045 -3.76552 2.50885
head 3.45921 -1.69005 0.0811862
lclavicle 1.67431e-14 -1.6224e-14 4.97589e-31
lhumerus -39.2351 -18.448 82.0972
lradius 52.6421 -0 0
lwrist 22.6587 0 0
lhand 6.74055 5.72216 -0.301005
lfingers 7.12502 -0 0
lthumb 32.0426 33.054 -0.27045
rclavicle 1.67431e-14 -1.6224e-14 4.97589e-31
rhumerus -44.315 5.58554 -61.9452
rradius 52.7528 -0 0
rwrist -0.545732 0 0
rhand -10.2344 -28.6593 0.198445
rfingers 7.12502 -0 0
rthumb 15.7595 -58.0589 0.190762
857
root 4.00207 16.5801 29.4373 -12.654 6.45747 -0.24492
lfemur -15.1405 2.91175 -14.9213
ltibia 28.6614 -0 0
lfoot -3.5957 -21.7547 0.426551
ltoes 23.3567 -0 0
rfemur -49.3715 4.46111 5.19776
rtibia 51.6874 -0 0
rfoot 4.39083 0.104429 -0.00558652
rtoes -5.84404 0 0
lowerback 10.9501 -0.293028 -2.23615
upperback 3.62315 -0.604782 -0.450963
thorax -2.02536 -0.302955 1.13781
lowerneck -6.28708 -2.5751 2.92285
upperneck 7.46095 -3.95212 2.60588
head 3.52435 -1.77497 0.121525
lclavicle 1.73509e-14 -1.67225e-14 4.27621e-31
lhumerus -38.7663 -18.9405 81.8514
lradius 53.0232 -0 0
lwrist 22.7102 0 0
lhand 6.87561 5.53261 -0.261885
lfingers 7.12502 -0 0
lthumb 32.1699 32.8258 -0.234124
rclavicle 1.73509e-14 -1.67225e-14 4.27621e-31
rhumerus -45.2253 4.62734 -60.4986
rradius 52.5526 -0 0
rwrist -0.312007 0 0
rhand -10.6833 -28.8331 0.173724
rfingers 7.12502 -0 0
rthumb 15.3267 -58.2608 0.167498
858
root 4.0121 16.5815 29.4345 -13.1441 8.50372 -0.321893
lfemur -14.6085 3.45606 -15.7731
ltibia 29.6842 -0 0
lfoot -3.75597 -22.8054 0.367839
ltoes 23.3731 -0 0
rfemur -51.3533 3.49037 4.99761
rtibia 53.3717 -0 0
rfoot 5.234 0.09343 -0.0219119
rtoes -5.15231 0 0
lowerback 11.3402 -0.52239 -2.64864
upperback 3.74132 -0.967893 -0.555992
thorax -2.15038 -0.482071 1.26249
lowerneck -6.31348 -2.71651 2.82683
upperneck 7.61371 -4.14869 2.70689
head 3.58739 -1.86467 0.164138
lclavicle 1.79594e-14 -1.72133e-14 3.52177e-31
lhumerus -38.3038 -19.4359 81.6111
lradius 53.4324 -0 0
lwrist 22.7518 0 0
lhand 6.98205 5.32754 -0.218308
lfingers 7.12502 -0 0
lthumb 32.2695 32.5839 -0.194182
rclavicle 1.79594e-14 -1.72133e-14 3.52177e-31
rhumerus -46.1422 3.70958 -59.0662
rradius 52.3788 -0 0
rwrist -0.0661447 0 0
rhand -11.1567 -29.0007 0.145747
rfingers 7.12502 -0 0
rthumb 14.8703 -58.4578 0.140948
